<svg id="visual" viewBox="0 0 900 600" width="900" height="600" xmlns="http://www.w3.org/2000/svg" xmlns:xlink="http://www.w3.org/1999/xlink" version="1.1"><path d="M0 67L25 75C50 83 100 99 150 102C200 105 250 95 300 107C350 119 400 153 450 152C500 151 550 115 600 104C650 93 700 107 750 104C800 101 850 81 875 71L900 61L900 0L875 0C850 0 800 0 750 0C700 0 650 0 600 0C550 0 500 0 450 0C400 0 350 0 300 0C250 0 200 0 150 0C100 0 50 0 25 0L0 0Z" fill="#ff6f61"></path><path d="M0 127L25 132C50 137 100 147 150 145C200 143 250 129 300 149C350 169 400 223 450 228C500 233 550 189 600 167C650 145 700 145 750 144C800 143 850 141 875 140L900 139L900 59L875 69C850 79 800 99 750 102C700 105 650 91 600 102C550 113 500 149 450 150C400 151 350 117 300 105C250 93 200 103 150 100C100 97 50 81 25 73L0 65Z" fill="#f56164"></path><path d="M0 157L25 159C50 161 100 165 150 162C200 159 250 149 300 169C350 189 400 239 450 245C500 251 550 213 600 192C650 171 700 167 750 165C800 163 850 163 875 163L900 163L900 137L875 138C850 139 800 141 750 142C700 143 650 143 600 165C550 187 500 231 450 226C400 221 350 167 300 147C250 127 200 141 150 143C100 145 50 135 25 130L0 125Z" fill="#ea5367"></path><path d="M0 223L25 227C50 231 100 239 150 234C200 229 250 211 300 226C350 241 400 289 450 298C500 307 550 277 600 266C650 255 700 263 750 258C800 253 850 235 875 226L900 217L900 161L875 161C850 161 800 161 750 163C700 165 650 169 600 190C550 211 500 249 450 243C400 237 350 187 300 167C250 147 200 157 150 160C100 163 50 159 25 157L0 155Z" fill="#dd476a"></path><path d="M0 265L25 269C50 273 100 281 150 279C200 277 250 265 300 277C350 289 400 325 450 331C500 337 550 313 600 307C650 301 700 313 750 309C800 305 850 285 875 275L900 265L900 215L875 224C850 233 800 251 750 256C700 261 650 253 600 264C550 275 500 305 450 296C400 287 350 239 300 224C250 209 200 227 150 232C100 237 50 229 25 225L0 221Z" fill="#d03b6d"></path><path d="M0 445L25 442C50 439 100 433 150 430C200 427 250 427 300 430C350 433 400 439 450 433C500 427 550 409 600 404C650 399 700 407 750 411C800 415 850 415 875 415L900 415L900 263L875 273C850 283 800 303 750 307C700 311 650 299 600 305C550 311 500 335 450 329C400 323 350 287 300 275C250 263 200 275 150 277C100 279 50 271 25 267L0 263Z" fill="#c1316f"></path><path d="M0 481L25 476C50 471 100 461 150 456C200 451 250 451 300 453C350 455 400 459 450 454C500 449 550 435 600 431C650 427 700 433 750 437C800 441 850 443 875 444L900 445L900 413L875 413C850 413 800 413 750 409C700 405 650 397 600 402C550 407 500 425 450 431C400 437 350 431 300 428C250 425 200 425 150 428C100 431 50 437 25 440L0 443Z" fill="#b12871"></path><path d="M0 505L25 499C50 493 100 481 150 477C200 473 250 477 300 485C350 493 400 505 450 500C500 495 550 473 600 470C650 467 700 483 750 485C800 487 850 475 875 469L900 463L900 443L875 442C850 441 800 439 750 435C700 431 650 425 600 429C550 433 500 447 450 452C400 457 350 453 300 451C250 449 200 449 150 454C100 459 50 469 25 474L0 479Z" fill="#a02072"></path><path d="M0 523L25 516C50 509 100 495 150 494C200 493 250 505 300 515C350 525 400 533 450 529C500 525 550 509 600 509C650 509 700 525 750 525C800 525 850 509 875 501L900 493L900 461L875 467C850 473 800 485 750 483C700 481 650 465 600 468C550 471 500 493 450 498C400 503 350 491 300 483C250 475 200 471 150 475C100 479 50 491 25 497L0 503Z" fill="#8e1b72"></path><path d="M0 547L25 545C50 543 100 539 150 537C200 535 250 535 300 541C350 547 400 559 450 559C500 559 550 547 600 545C650 543 700 551 750 551C800 551 850 543 875 539L900 535L900 491L875 499C850 507 800 523 750 523C700 523 650 507 600 507C550 507 500 523 450 527C400 531 350 523 300 513C250 503 200 491 150 492C100 493 50 507 25 514L0 521Z" fill="#7b1771"></path><path d="M0 571L25 570C50 569 100 567 150 567C200 567 250 569 300 573C350 577 400 583 450 584C500 585 550 581 600 579C650 577 700 577 750 575C800 573 850 569 875 567L900 565L900 533L875 537C850 541 800 549 750 549C700 549 650 541 600 543C550 545 500 557 450 557C400 557 350 545 300 539C250 533 200 533 150 535C100 537 50 541 25 543L0 545Z" fill="#671670"></path><path d="M0 601L25 601C50 601 100 601 150 601C200 601 250 601 300 601C350 601 400 601 450 601C500 601 550 601 600 601C650 601 700 601 750 601C800 601 850 601 875 601L900 601L900 563L875 565C850 567 800 571 750 573C700 575 650 575 600 577C550 579 500 583 450 582C400 581 350 575 300 571C250 567 200 565 150 565C100 565 50 567 25 568L0 569Z" fill="#52156d"></path></svg>