<svg id="visual" viewBox="0 0 900 600" width="900" height="600" xmlns="http://www.w3.org/2000/svg" xmlns:xlink="http://www.w3.org/1999/xlink" version="1.1"><path d="M0 73L13.7 71C27.3 69 54.7 65 82 72C109.3 79 136.7 97 163.8 94C191 91 218 67 245.2 64C272.3 61 299.7 79 327 81C354.3 83 381.7 69 409 62C436.3 55 463.7 55 491 63C518.3 71 545.7 87 573 85C600.3 83 627.7 63 654.8 62C682 61 709 79 736.2 92C763.3 105 790.7 113 818 113C845.3 113 872.7 105 886.3 101L900 97L900 0L886.3 0C872.7 0 845.3 0 818 0C790.7 0 763.3 0 736.2 0C709 0 682 0 654.8 0C627.7 0 600.3 0 573 0C545.7 0 518.3 0 491 0C463.7 0 436.3 0 409 0C381.7 0 354.3 0 327 0C299.7 0 272.3 0 245.2 0C218 0 191 0 163.8 0C136.7 0 109.3 0 82 0C54.7 0 27.3 0 13.7 0L0 0Z" fill="#45377a"></path><path d="M0 259L13.7 254C27.3 249 54.7 239 82 235C109.3 231 136.7 233 163.8 222C191 211 218 187 245.2 192C272.3 197 299.7 231 327 247C354.3 263 381.7 261 409 266C436.3 271 463.7 283 491 295C518.3 307 545.7 319 573 312C600.3 305 627.7 279 654.8 262C682 245 709 237 736.2 236C763.3 235 790.7 241 818 260C845.3 279 872.7 311 886.3 327L900 343L900 95L886.3 99C872.7 103 845.3 111 818 111C790.7 111 763.3 103 736.2 90C709 77 682 59 654.8 60C627.7 61 600.3 81 573 83C545.7 85 518.3 69 491 61C463.7 53 436.3 53 409 60C381.7 67 354.3 81 327 79C299.7 77 272.3 59 245.2 62C218 65 191 89 163.8 92C136.7 95 109.3 77 82 70C54.7 63 27.3 67 13.7 69L0 71Z" fill="#564293"></path><path d="M0 337L13.7 326C27.3 315 54.7 293 82 285C109.3 277 136.7 283 163.8 282C191 281 218 273 245.2 286C272.3 299 299.7 333 327 342C354.3 351 381.7 335 409 334C436.3 333 463.7 347 491 355C518.3 363 545.7 365 573 363C600.3 361 627.7 355 654.8 345C682 335 709 321 736.2 312C763.3 303 790.7 299 818 312C845.3 325 872.7 355 886.3 370L900 385L900 341L886.3 325C872.7 309 845.3 277 818 258C790.7 239 763.3 233 736.2 234C709 235 682 243 654.8 260C627.7 277 600.3 303 573 310C545.7 317 518.3 305 491 293C463.7 281 436.3 269 409 264C381.7 259 354.3 261 327 245C299.7 229 272.3 195 245.2 190C218 185 191 209 163.8 220C136.7 231 109.3 229 82 233C54.7 237 27.3 247 13.7 252L0 257Z" fill="#694cac"></path><path d="M0 493L13.7 477C27.3 461 54.7 429 82 409C109.3 389 136.7 381 163.8 374C191 367 218 361 245.2 375C272.3 389 299.7 423 327 444C354.3 465 381.7 473 409 473C436.3 473 463.7 465 491 470C518.3 475 545.7 493 573 490C600.3 487 627.7 463 654.8 454C682 445 709 451 736.2 451C763.3 451 790.7 445 818 448C845.3 451 872.7 463 886.3 469L900 475L900 383L886.3 368C872.7 353 845.3 323 818 310C790.7 297 763.3 301 736.2 310C709 319 682 333 654.8 343C627.7 353 600.3 359 573 361C545.7 363 518.3 361 491 353C463.7 345 436.3 331 409 332C381.7 333 354.3 349 327 340C299.7 331 272.3 297 245.2 284C218 271 191 279 163.8 280C136.7 281 109.3 275 82 283C54.7 291 27.3 313 13.7 324L0 335Z" fill="#7d56c6"></path><path d="M0 601L13.7 601C27.3 601 54.7 601 82 601C109.3 601 136.7 601 163.8 601C191 601 218 601 245.2 601C272.3 601 299.7 601 327 601C354.3 601 381.7 601 409 601C436.3 601 463.7 601 491 601C518.3 601 545.7 601 573 601C600.3 601 627.7 601 654.8 601C682 601 709 601 736.2 601C763.3 601 790.7 601 818 601C845.3 601 872.7 601 886.3 601L900 601L900 473L886.3 467C872.7 461 845.3 449 818 446C790.7 443 763.3 449 736.2 449C709 449 682 443 654.8 452C627.7 461 600.3 485 573 488C545.7 491 518.3 473 491 468C463.7 463 436.3 471 409 471C381.7 471 354.3 463 327 442C299.7 421 272.3 387 245.2 373C218 359 191 365 163.8 372C136.7 379 109.3 387 82 407C54.7 427 27.3 459 13.7 475L0 491Z" fill="#9360e0"></path></svg>