<svg id="visual" viewBox="0 0 960 300" width="960" height="300" xmlns="http://www.w3.org/2000/svg" xmlns:xlink="http://www.w3.org/1999/xlink" version="1.1"><path d="M0 73L150 91L300 97L450 67L600 79L750 85L900 73L900 0L750 0L600 0L450 0L300 0L150 0L0 0Z" fill="#45377a"></path><path d="M0 139L150 175L300 181L450 145L600 157L750 169L900 157L900 71L750 83L600 77L450 65L300 95L150 89L0 71Z" fill="#504096"></path><path d="M0 247L150 295L300 283L450 241L600 271L750 253L900 241L900 155L750 167L600 155L450 143L300 179L150 173L0 137Z" fill="#5b4ab4"></path><path d="M0 463L150 481L300 445L450 457L600 409L750 439L900 421L900 239L750 251L600 269L450 239L300 281L150 293L0 245Z" fill="#6653d3"></path><path d="M0 601L150 601L300 601L450 601L600 601L750 601L900 601L900 419L750 437L600 407L450 455L300 443L150 479L0 461Z" fill="#715df2"></path></svg>